<svg xmlns="http://www.w3.org/2000/svg" width="16.251" height="16.25" viewBox="0 0 16.251 16.25">
  <path id="Icon_ionic-ios-clock" data-name="Icon ionic-ios-clock" d="M15.746,4.254a8.126,8.126,0,1,0,0,11.492A8.129,8.129,0,0,0,15.746,4.254ZM3.5,10.3a.313.313,0,1,1,.246-.246A.312.312,0,0,1,3.5,10.3Zm1.023,3.211a.311.311,0,1,1,.09-.332A.312.312,0,0,1,4.523,13.516Zm.09-6.7a.311.311,0,1,1-.09-.332A.313.313,0,0,1,4.613,6.816Zm2.4,8.965a.311.311,0,1,1-.09-.332A.313.313,0,0,1,7.016,15.781Zm-.09-11.23a.311.311,0,1,1,.09-.332A.312.312,0,0,1,6.926,4.551Zm1.383,2.98a.313.313,0,1,1,.535-.324L10.16,9.641a1.266,1.266,0,0,1,.152.594V15a.313.313,0,0,1-.625,0V10.234a.643.643,0,0,0-.074-.3Zm1.754,9.336a.313.313,0,1,1,.246-.246A.312.312,0,0,1,10.063,16.867Zm0-13.125a.313.313,0,1,1,.246-.246A.312.312,0,0,1,10.063,3.742Zm3.426,12.176a.311.311,0,1,1,.09-.332A.312.312,0,0,1,13.488,15.918Zm.09-11.5a.311.311,0,1,1-.09-.332A.313.313,0,0,1,13.578,4.414Zm2.4,8.965a.311.311,0,1,1-.09-.332A.313.313,0,0,1,15.98,13.379Zm-.09-6.426a.311.311,0,1,1,.09-.332A.312.312,0,0,1,15.891,6.953Zm.734,3.352a.313.313,0,1,1,.246-.246A.312.312,0,0,1,16.625,10.3Z" transform="translate(-1.874 -1.875)"/>
</svg>
